<!-- <svg width="63" height="59" viewBox="0 0 63 59" fill="none" xmlns="http://www.w3.org/2000/svg">
<path d="M41.424 55.488C40.8 54.144 40.032 52.176 39.12 49.632L28.704 20.736C27.744 18.192 27.408 16.944 27.072 15.552H14.544C14.304 16.944 13.872 18.384 13.008 20.736L2.64 49.632C1.488 52.896 1.056 54.048 0.336 55.488H11.568C11.808 53.712 12.144 52.224 12.768 50.304L14.064 46.224H27.744L29.04 50.304C29.52 51.936 29.808 53.184 30.192 55.488H41.424ZM25.392 38.16H16.368L20.832 23.76L25.392 38.16Z" fill="url(#paint0_linear)"/>
<path d="M62.424 55.488C61.8 54.144 61.032 52.176 60.12 49.632L49.704 20.736C48.744 18.192 48.408 16.944 48.072 15.552H35.544C35.304 16.944 34.872 18.384 34.008 20.736L23.64 49.632C22.488 52.896 22.056 54.048 21.336 55.488H32.568C32.808 53.712 33.144 52.224 33.768 50.304L35.064 46.224H48.744L50.04 50.304C50.52 51.936 50.808 53.184 51.192 55.488H62.424ZM46.392 38.16H37.368L41.832 23.76L46.392 38.16Z" fill="url(#paint1_linear)"/>
<defs>
<linearGradient id="paint0_linear" x1="21" y1="-4.11158e-06" x2="-97.4669" y2="79.3434" gradientUnits="userSpaceOnUse">
<stop stop-color="#87037A"/>
<stop offset="0.328125" stop-color="#FFD037"/>
<stop offset="0.645833" stop-color="#102E9A"/>
<stop offset="1" stop-color="#340075"/>
</linearGradient>
<linearGradient id="paint1_linear" x1="42" y1="-4.11158e-06" x2="-76.4669" y2="79.3434" gradientUnits="userSpaceOnUse">
<stop stop-color="#87037A"/>
<stop offset="0.328125" stop-color="#FFD037"/>
<stop offset="0.645833" stop-color="#102E9A"/>
<stop offset="1" stop-color="#340075"/>
</linearGradient>
</defs>
</svg> -->
<svg width="63" height="94" viewBox="0 0 63 94" fill="none" xmlns="http://www.w3.org/2000/svg">
<circle cx="31.0909" cy="53.0909" r="30.3409" stroke="url(#paint0_linear)" stroke-width="1.5" stroke-linecap="round" stroke-linejoin="round" stroke-dasharray="52.38 1.23 4.85 8.47"/>
<path d="M41.3125 66.9688H42.3125C42.3125 66.6433 42.1541 66.3382 41.888 66.1509L41.3125 66.9688ZM38.1875 65.9375L37.9835 66.9165C37.9887 66.9176 37.9939 66.9186 37.9992 66.9196L38.1875 65.9375ZM33.8438 65.3438L33.9033 64.3455C33.5283 64.3231 33.1723 64.5129 32.9818 64.8367L33.8438 65.3438ZM32.7812 68.5938L31.8007 68.3976L31.7995 68.4037L32.7812 68.5938ZM32.5938 69.5625L33.5752 69.754L33.5755 69.7525L32.5938 69.5625ZM30.6875 76.2812V77.2812C31.0354 77.2812 31.3583 77.1004 31.5401 76.8038L30.6875 76.2812ZM27.875 75L27.0572 74.4245C26.8865 74.667 26.8323 74.9727 26.9092 75.2591L27.875 75ZM29.4688 69L30.4505 69.1904L30.4509 69.1881L29.4688 69ZM31.5625 57.2812L32.5482 57.4497L32.5485 57.448L31.5625 57.2812ZM34.1875 43L35.167 43.2012L35.1673 43.2002L34.1875 43ZM36.6875 33.2188L37.6369 33.5327L37.6388 33.5269L36.6875 33.2188ZM41.5625 29.3438H42.5625C42.5625 29.0362 42.421 28.7458 42.1788 28.5562L41.5625 29.3438ZM44.75 64.5L45.7455 64.405L45.7448 64.3977L44.75 64.5ZM41.25 63.0312L41.4925 64.0014C41.9625 63.8839 42.2806 63.4465 42.2477 62.9632L41.25 63.0312ZM40.5938 56.0625L39.5986 56.1612L39.5988 56.1626L40.5938 56.0625ZM39.1562 37.8125L40.1049 38.1287C40.2516 37.6887 40.0765 37.2057 39.682 36.9618C39.2875 36.718 38.7771 36.7775 38.4491 37.1054L39.1562 37.8125ZM35.3125 54.6875L36.2993 54.8494L36.2994 54.8485L35.3125 54.6875ZM34.25 62.5L33.2512 62.4509C33.228 62.9225 33.5379 63.3461 33.9944 63.4668L34.25 62.5ZM43.2812 75.9688C42.6733 75.9688 42.4528 75.8503 42.4059 75.8129L41.1566 77.3746C41.7347 77.8372 42.5142 77.9688 43.2812 77.9688V75.9688ZM42.4059 75.8129C42.4057 75.8127 42.4033 75.811 42.3984 75.8038C42.3929 75.796 42.3817 75.7775 42.3688 75.7424C42.3418 75.6684 42.3125 75.5336 42.3125 75.3125H40.3125C40.3125 76.0622 40.506 76.8542 41.1566 77.3746L42.4059 75.8129ZM42.3125 75.3125V66.9688H40.3125V75.3125H42.3125ZM41.888 66.1509C41.1352 65.6212 39.9042 65.2485 38.3758 64.9554L37.9992 66.9196C39.5125 67.2098 40.3648 67.5246 40.737 67.7866L41.888 66.1509ZM38.3915 64.9585C36.8483 64.637 35.3521 64.432 33.9033 64.3455L33.7842 66.342C35.1271 66.4221 36.5267 66.613 37.9835 66.9165L38.3915 64.9585ZM32.9818 64.8367C32.48 65.6898 32.0995 66.9034 31.8007 68.3976L33.7618 68.7899C34.0463 67.3674 34.3742 66.4144 34.7057 65.8508L32.9818 64.8367ZM31.7995 68.4037L31.612 69.3725L33.5755 69.7525L33.763 68.7838L31.7995 68.4037ZM31.6123 69.371C31.2807 71.0701 30.9827 72.435 30.7185 73.4717L32.6565 73.9658C32.9339 72.8775 33.2401 71.4715 33.5752 69.754L31.6123 69.371ZM30.7185 73.4717C30.4624 74.4765 30.1606 75.2272 29.8349 75.7587L31.5401 76.8038C32.006 76.0436 32.371 75.086 32.6565 73.9658L30.7185 73.4717ZM30.6875 75.2812C29.9318 75.2812 29.4483 75.1802 29.1646 75.0509C28.9176 74.9384 28.8649 74.8304 28.8408 74.7409L26.9092 75.2591C27.1143 76.0238 27.6449 76.5564 28.3354 76.871C28.9892 77.1688 29.7974 77.2812 30.6875 77.2812V75.2812ZM28.6928 75.5755C28.8713 75.3218 29.015 74.9878 29.1376 74.6488C29.2671 74.2909 29.3999 73.8502 29.5368 73.3348C29.8109 72.3031 30.1153 70.9185 30.4505 69.1904L28.487 68.8096C28.1555 70.519 27.861 71.8532 27.6038 72.8214C27.4751 73.306 27.3592 73.6857 27.2569 73.9684C27.2059 74.1093 27.1612 74.2181 27.1234 74.2992C27.1047 74.3393 27.0891 74.3696 27.0769 74.3917C27.0708 74.4025 27.066 74.4106 27.0625 74.4163C27.059 74.422 27.0572 74.4245 27.0572 74.4245L28.6928 75.5755ZM30.4509 69.1881C31.0152 66.2412 31.7144 62.3277 32.5482 57.4497L30.5768 57.1128C29.744 61.9848 29.0473 65.8838 28.4866 68.8119L30.4509 69.1881ZM32.5485 57.448C33.5057 51.7881 34.3785 47.04 35.167 43.2012L33.208 42.7988C32.4131 46.6683 31.536 51.441 30.5765 57.1145L32.5485 57.448ZM35.1673 43.2002C35.954 39.3491 36.7782 36.1294 37.6369 33.5327L35.7381 32.9048C34.8468 35.5998 34.0043 38.9009 33.2077 42.7998L35.1673 43.2002ZM37.6388 33.5269C38.1088 32.0762 38.5521 31.0601 38.954 30.426C39.399 29.7239 39.6022 29.7812 39.5 29.7812V27.7812C38.4811 27.7812 37.7572 28.5782 37.2647 29.3553C36.7292 30.2003 36.2245 31.403 35.7362 32.9106L37.6388 33.5269ZM39.5 29.7812C40.274 29.7812 40.709 29.9456 40.9462 30.1313L42.1788 28.5562C41.4577 27.9919 40.5177 27.7812 39.5 27.7812V29.7812ZM40.5625 29.3438C40.5625 31.0043 40.9901 35.1917 41.8203 41.8119L43.8047 41.5631C42.9682 34.8917 42.5625 30.8499 42.5625 29.3438H40.5625ZM41.8203 41.8119C42.6553 48.4709 43.0625 52.7821 43.0625 54.8125H45.0625C45.0625 52.6346 44.6364 48.1957 43.8047 41.5631L41.8203 41.8119ZM43.0625 54.8125C43.0625 56.8678 43.2966 60.141 43.7552 64.6023L45.7448 64.3977C45.2867 59.9423 45.0625 56.7572 45.0625 54.8125H43.0625ZM43.7545 64.595C44.1914 69.1715 44.4062 72.5703 44.4062 74.8125H46.4062C46.4062 72.4714 46.1836 68.9951 45.7455 64.405L43.7545 64.595ZM44.4062 74.8125C44.4062 75.3807 44.2664 75.6225 44.1628 75.7278C44.0617 75.8303 43.8317 75.9688 43.2812 75.9688V77.9688C44.1475 77.9688 44.98 77.7478 45.5872 77.1316C46.1919 76.5181 46.4062 75.6818 46.4062 74.8125H44.4062ZM39.9375 64.2188C40.4183 64.2188 40.9405 64.1394 41.4925 64.0014L41.0075 62.0611C40.5595 62.1731 40.2067 62.2188 39.9375 62.2188V64.2188ZM42.2477 62.9632C42.1838 62.0268 41.9631 59.6854 41.5887 55.9624L39.5988 56.1626C39.9744 59.8979 40.1912 62.2023 40.2523 63.0993L42.2477 62.9632ZM41.5889 55.9638C40.6071 46.0622 40.125 40.2292 40.125 38.375H38.125C38.125 40.3542 38.6221 46.3128 39.5986 56.1612L41.5889 55.9638ZM40.125 38.375C40.125 38.2269 40.1275 38.1227 40.1313 38.0555C40.1322 38.0395 40.133 38.0274 40.1338 38.0186C40.1345 38.0096 40.135 38.006 40.1349 38.0068C40.1348 38.007 40.1337 38.0166 40.1305 38.0327C40.1279 38.0463 40.1206 38.0818 40.1049 38.1287L38.2076 37.4963C38.1483 37.6741 38.1385 37.869 38.1344 37.9445C38.1277 38.0648 38.125 38.2106 38.125 38.375H40.125ZM38.4491 37.1054C38.199 37.3555 38.0231 37.7101 37.8927 38.0158C37.7477 38.3557 37.6002 38.7814 37.4491 39.2806C37.1462 40.2813 36.8064 41.652 36.4292 43.3806L38.3833 43.8069C38.7561 42.098 39.0829 40.7864 39.3634 39.86C39.5039 39.3957 39.6273 39.0467 39.7323 38.8006C39.8519 38.5204 39.9051 38.4778 39.8634 38.5196L38.4491 37.1054ZM36.4292 43.3806C35.675 46.8376 34.9738 50.553 34.3256 54.5265L36.2994 54.8485C36.9428 50.9053 37.6375 47.2249 38.3833 43.8069L36.4292 43.3806ZM34.3257 54.5256C33.6817 58.4519 33.317 61.1133 33.2512 62.4509L35.2488 62.5491C35.308 61.3451 35.6516 58.7981 36.2993 54.8494L34.3257 54.5256ZM33.9944 63.4668C35.8948 63.9692 37.8769 64.2188 39.9375 64.2188V62.2188C38.0398 62.2188 36.2302 61.9891 34.5056 61.5332L33.9944 63.4668Z" fill="url(#paint1_linear)"/>
<path d="M27.3125 65.9688H28.3125C28.3125 65.6433 28.1541 65.3382 27.888 65.1509L27.3125 65.9688ZM24.1875 64.9375L23.9835 65.9165C23.9887 65.9176 23.9939 65.9186 23.9992 65.9196L24.1875 64.9375ZM19.8438 64.3438L19.9033 63.3455C19.5283 63.3231 19.1723 63.5129 18.9818 63.8367L19.8438 64.3438ZM18.7812 67.5938L17.8007 67.3976L17.7995 67.4037L18.7812 67.5938ZM18.5938 68.5625L19.5752 68.754L19.5755 68.7525L18.5938 68.5625ZM16.6875 75.2812V76.2812C17.0354 76.2812 17.3583 76.1004 17.5401 75.8038L16.6875 75.2812ZM13.875 74L13.0572 73.4245C12.8865 73.667 12.8323 73.9727 12.9092 74.2591L13.875 74ZM15.4688 68L16.4505 68.1904L16.4509 68.1881L15.4688 68ZM17.5625 56.2812L18.5482 56.4497L18.5485 56.448L17.5625 56.2812ZM20.1875 42L21.167 42.2012L21.1673 42.2002L20.1875 42ZM22.6875 32.2188L23.6369 32.5327L23.6388 32.5269L22.6875 32.2188ZM27.5625 28.3438H28.5625C28.5625 28.0362 28.421 27.7458 28.1788 27.5562L27.5625 28.3438ZM30.75 63.5L31.7455 63.405L31.7448 63.3977L30.75 63.5ZM27.25 62.0312L27.4925 63.0014C27.9625 62.8839 28.2806 62.4465 28.2477 61.9632L27.25 62.0312ZM26.5938 55.0625L25.5986 55.1612L25.5988 55.1626L26.5938 55.0625ZM25.1562 36.8125L26.1049 37.1287C26.2516 36.6887 26.0765 36.2057 25.682 35.9618C25.2875 35.718 24.7771 35.7775 24.4491 36.1054L25.1562 36.8125ZM21.3125 53.6875L22.2993 53.8494L22.2994 53.8485L21.3125 53.6875ZM20.25 61.5L19.2512 61.4509C19.228 61.9225 19.5379 62.3461 19.9944 62.4668L20.25 61.5ZM29.2812 74.9688C28.6733 74.9688 28.4528 74.8503 28.4059 74.8129L27.1566 76.3746C27.7347 76.8372 28.5142 76.9688 29.2812 76.9688V74.9688ZM28.4059 74.8129C28.4057 74.8127 28.4033 74.811 28.3984 74.8038C28.3929 74.796 28.3817 74.7775 28.3688 74.7424C28.3418 74.6684 28.3125 74.5336 28.3125 74.3125H26.3125C26.3125 75.0622 26.506 75.8542 27.1566 76.3746L28.4059 74.8129ZM28.3125 74.3125V65.9688H26.3125V74.3125H28.3125ZM27.888 65.1509C27.1352 64.6212 25.9042 64.2485 24.3758 63.9554L23.9992 65.9196C25.5125 66.2098 26.3648 66.5246 26.737 66.7866L27.888 65.1509ZM24.3915 63.9585C22.8483 63.637 21.3521 63.432 19.9033 63.3455L19.7842 65.342C21.1271 65.4221 22.5267 65.613 23.9835 65.9165L24.3915 63.9585ZM18.9818 63.8367C18.48 64.6898 18.0995 65.9034 17.8007 67.3976L19.7618 67.7899C20.0463 66.3674 20.3742 65.4144 20.7057 64.8508L18.9818 63.8367ZM17.7995 67.4037L17.612 68.3725L19.5755 68.7525L19.763 67.7838L17.7995 67.4037ZM17.6123 68.371C17.2807 70.0701 16.9827 71.435 16.7185 72.4717L18.6565 72.9658C18.9339 71.8775 19.2401 70.4715 19.5752 68.754L17.6123 68.371ZM16.7185 72.4717C16.4624 73.4765 16.1606 74.2272 15.8349 74.7587L17.5401 75.8038C18.006 75.0436 18.371 74.086 18.6565 72.9658L16.7185 72.4717ZM16.6875 74.2812C15.9318 74.2812 15.4483 74.1802 15.1646 74.0509C14.9176 73.9384 14.8649 73.8304 14.8408 73.7409L12.9092 74.2591C13.1143 75.0238 13.6449 75.5564 14.3354 75.871C14.9892 76.1688 15.7974 76.2812 16.6875 76.2812V74.2812ZM14.6928 74.5755C14.8713 74.3218 15.015 73.9878 15.1376 73.6488C15.2671 73.2909 15.3999 72.8502 15.5368 72.3348C15.8109 71.3031 16.1153 69.9185 16.4505 68.1904L14.487 67.8096C14.1555 69.519 13.861 70.8532 13.6038 71.8214C13.4751 72.306 13.3592 72.6857 13.2569 72.9684C13.2059 73.1093 13.1612 73.2181 13.1234 73.2992C13.1047 73.3393 13.0891 73.3696 13.0769 73.3917C13.0708 73.4025 13.066 73.4106 13.0625 73.4163C13.059 73.422 13.0572 73.4245 13.0572 73.4245L14.6928 74.5755ZM16.4509 68.1881C17.0152 65.2412 17.7144 61.3277 18.5482 56.4497L16.5768 56.1128C15.744 60.9848 15.0473 64.8838 14.4866 67.8119L16.4509 68.1881ZM18.5485 56.448C19.5057 50.7881 20.3785 46.04 21.167 42.2012L19.208 41.7988C18.4131 45.6683 17.536 50.441 16.5765 56.1145L18.5485 56.448ZM21.1673 42.2002C21.954 38.3491 22.7782 35.1294 23.6369 32.5327L21.7381 31.9048C20.8468 34.5998 20.0043 37.9009 19.2077 41.7998L21.1673 42.2002ZM23.6388 32.5269C24.1088 31.0762 24.5521 30.0601 24.954 29.426C25.399 28.7239 25.6022 28.7812 25.5 28.7812V26.7812C24.4811 26.7812 23.7572 27.5782 23.2647 28.3553C22.7292 29.2003 22.2245 30.403 21.7362 31.9106L23.6388 32.5269ZM25.5 28.7812C26.274 28.7812 26.709 28.9456 26.9462 29.1313L28.1788 27.5562C27.4577 26.9919 26.5177 26.7812 25.5 26.7812V28.7812ZM26.5625 28.3438C26.5625 30.0043 26.9901 34.1917 27.8203 40.8119L29.8047 40.5631C28.9682 33.8917 28.5625 29.8499 28.5625 28.3438H26.5625ZM27.8203 40.8119C28.6553 47.4709 29.0625 51.7821 29.0625 53.8125H31.0625C31.0625 51.6346 30.6364 47.1957 29.8047 40.5631L27.8203 40.8119ZM29.0625 53.8125C29.0625 55.8678 29.2966 59.141 29.7552 63.6023L31.7448 63.3977C31.2867 58.9423 31.0625 55.7572 31.0625 53.8125H29.0625ZM29.7545 63.595C30.1914 68.1715 30.4062 71.5703 30.4062 73.8125H32.4062C32.4062 71.4714 32.1836 67.9951 31.7455 63.405L29.7545 63.595ZM30.4062 73.8125C30.4062 74.3807 30.2664 74.6225 30.1628 74.7278C30.0617 74.8303 29.8317 74.9688 29.2812 74.9688V76.9688C30.1475 76.9688 30.98 76.7478 31.5872 76.1316C32.1919 75.5181 32.4062 74.6818 32.4062 73.8125H30.4062ZM25.9375 63.2188C26.4183 63.2188 26.9405 63.1394 27.4925 63.0014L27.0075 61.0611C26.5595 61.1731 26.2067 61.2188 25.9375 61.2188V63.2188ZM28.2477 61.9632C28.1838 61.0268 27.9631 58.6854 27.5887 54.9624L25.5988 55.1626C25.9744 58.8979 26.1912 61.2023 26.2523 62.0993L28.2477 61.9632ZM27.5889 54.9638C26.6071 45.0622 26.125 39.2292 26.125 37.375H24.125C24.125 39.3542 24.6221 45.3128 25.5986 55.1612L27.5889 54.9638ZM26.125 37.375C26.125 37.2269 26.1275 37.1227 26.1313 37.0555C26.1322 37.0395 26.133 37.0274 26.1338 37.0186C26.1345 37.0096 26.135 37.006 26.1349 37.0068C26.1348 37.007 26.1337 37.0166 26.1305 37.0327C26.1279 37.0463 26.1206 37.0818 26.1049 37.1287L24.2076 36.4963C24.1483 36.6741 24.1385 36.869 24.1344 36.9445C24.1277 37.0648 24.125 37.2106 24.125 37.375H26.125ZM24.4491 36.1054C24.199 36.3555 24.0231 36.7101 23.8927 37.0158C23.7477 37.3557 23.6002 37.7814 23.4491 38.2806C23.1462 39.2813 22.8064 40.652 22.4292 42.3806L24.3833 42.8069C24.7561 41.098 25.0829 39.7864 25.3634 38.86C25.5039 38.3957 25.6273 38.0467 25.7323 37.8006C25.8519 37.5204 25.9051 37.4778 25.8634 37.5196L24.4491 36.1054ZM22.4292 42.3806C21.675 45.8376 20.9738 49.553 20.3256 53.5265L22.2994 53.8485C22.9428 49.9053 23.6375 46.2249 24.3833 42.8069L22.4292 42.3806ZM20.3257 53.5256C19.6817 57.4519 19.317 60.1133 19.2512 61.4509L21.2488 61.5491C21.308 60.3451 21.6516 57.7981 22.2993 53.8494L20.3257 53.5256ZM19.9944 62.4668C21.8948 62.9692 23.8769 63.2188 25.9375 63.2188V61.2188C24.0398 61.2188 22.2302 60.9891 20.5056 60.5332L19.9944 62.4668Z" fill="url(#paint2_linear)"/>
<defs>
<linearGradient id="paint0_linear" x1="31.0909" y1="22" x2="31.0909" y2="84.1818" gradientUnits="userSpaceOnUse">
<stop stop-color="#FFCC00"/>
<stop offset="0.489583" stop-color="#9E0759"/>
<stop offset="0.791667" stop-color="#835EFF"/>
<stop offset="1" stop-color="#FFCC00"/>
</linearGradient>
<linearGradient id="paint1_linear" x1="37" y1="1" x2="37" y2="94" gradientUnits="userSpaceOnUse">
<stop stop-color="#FFCC00"/>
<stop offset="0.453125" stop-color="#9E0759"/>
<stop offset="1" stop-color="#6A68D3"/>
</linearGradient>
<linearGradient id="paint2_linear" x1="23" y1="0" x2="23" y2="93" gradientUnits="userSpaceOnUse">
<stop stop-color="#FFCC00"/>
<stop offset="0.453125" stop-color="#9E0759"/>
<stop offset="1" stop-color="#6A68D3"/>
</linearGradient>
</defs>
</svg>



