<!-- <svg width="63" height="59" viewBox="0 0 63 59" fill="none" xmlns="http://www.w3.org/2000/svg">
<path d="M41.424 55.488C40.8 54.144 40.032 52.176 39.12 49.632L28.704 20.736C27.744 18.192 27.408 16.944 27.072 15.552H14.544C14.304 16.944 13.872 18.384 13.008 20.736L2.64 49.632C1.488 52.896 1.056 54.048 0.336 55.488H11.568C11.808 53.712 12.144 52.224 12.768 50.304L14.064 46.224H27.744L29.04 50.304C29.52 51.936 29.808 53.184 30.192 55.488H41.424ZM25.392 38.16H16.368L20.832 23.76L25.392 38.16Z" fill="url(#paint0_linear)"/>
<path d="M62.424 55.488C61.8 54.144 61.032 52.176 60.12 49.632L49.704 20.736C48.744 18.192 48.408 16.944 48.072 15.552H35.544C35.304 16.944 34.872 18.384 34.008 20.736L23.64 49.632C22.488 52.896 22.056 54.048 21.336 55.488H32.568C32.808 53.712 33.144 52.224 33.768 50.304L35.064 46.224H48.744L50.04 50.304C50.52 51.936 50.808 53.184 51.192 55.488H62.424ZM46.392 38.16H37.368L41.832 23.76L46.392 38.16Z" fill="url(#paint1_linear)"/>
<defs>
<linearGradient id="paint0_linear" x1="21" y1="-4.11158e-06" x2="-97.4669" y2="79.3434" gradientUnits="userSpaceOnUse">
<stop stop-color="#87037A"/>
<stop offset="0.328125" stop-color="#FFD037"/>
<stop offset="0.645833" stop-color="#102E9A"/>
<stop offset="1" stop-color="#340075"/>
</linearGradient>
<linearGradient id="paint1_linear" x1="42" y1="-4.11158e-06" x2="-76.4669" y2="79.3434" gradientUnits="userSpaceOnUse">
<stop stop-color="#87037A"/>
<stop offset="0.328125" stop-color="#FFD037"/>
<stop offset="0.645833" stop-color="#102E9A"/>
<stop offset="1" stop-color="#340075"/>
</linearGradient>
</defs>
</svg> -->
<!-- <svg width="63" height="94" viewBox="0 0 63 94" fill="none" xmlns="http://www.w3.org/2000/svg">
<circle cx="31.0909" cy="53.0909" r="30.3409" stroke="url(#paint0_linear)" stroke-width="1.5" stroke-linecap="round" stroke-linejoin="round" stroke-dasharray="52.38 1.23 4.85 8.47"/>
<path d="M41.3125 66.9688H42.3125C42.3125 66.6433 42.1541 66.3382 41.888 66.1509L41.3125 66.9688ZM38.1875 65.9375L37.9835 66.9165C37.9887 66.9176 37.9939 66.9186 37.9992 66.9196L38.1875 65.9375ZM33.8438 65.3438L33.9033 64.3455C33.5283 64.3231 33.1723 64.5129 32.9818 64.8367L33.8438 65.3438ZM32.7812 68.5938L31.8007 68.3976L31.7995 68.4037L32.7812 68.5938ZM32.5938 69.5625L33.5752 69.754L33.5755 69.7525L32.5938 69.5625ZM30.6875 76.2812V77.2812C31.0354 77.2812 31.3583 77.1004 31.5401 76.8038L30.6875 76.2812ZM27.875 75L27.0572 74.4245C26.8865 74.667 26.8323 74.9727 26.9092 75.2591L27.875 75ZM29.4688 69L30.4505 69.1904L30.4509 69.1881L29.4688 69ZM31.5625 57.2812L32.5482 57.4497L32.5485 57.448L31.5625 57.2812ZM34.1875 43L35.167 43.2012L35.1673 43.2002L34.1875 43ZM36.6875 33.2188L37.6369 33.5327L37.6388 33.5269L36.6875 33.2188ZM41.5625 29.3438H42.5625C42.5625 29.0362 42.421 28.7458 42.1788 28.5562L41.5625 29.3438ZM44.75 64.5L45.7455 64.405L45.7448 64.3977L44.75 64.5ZM41.25 63.0312L41.4925 64.0014C41.9625 63.8839 42.2806 63.4465 42.2477 62.9632L41.25 63.0312ZM40.5938 56.0625L39.5986 56.1612L39.5988 56.1626L40.5938 56.0625ZM39.1562 37.8125L40.1049 38.1287C40.2516 37.6887 40.0765 37.2057 39.682 36.9618C39.2875 36.718 38.7771 36.7775 38.4491 37.1054L39.1562 37.8125ZM35.3125 54.6875L36.2993 54.8494L36.2994 54.8485L35.3125 54.6875ZM34.25 62.5L33.2512 62.4509C33.228 62.9225 33.5379 63.3461 33.9944 63.4668L34.25 62.5ZM43.2812 75.9688C42.6733 75.9688 42.4528 75.8503 42.4059 75.8129L41.1566 77.3746C41.7347 77.8372 42.5142 77.9688 43.2812 77.9688V75.9688ZM42.4059 75.8129C42.4057 75.8127 42.4033 75.811 42.3984 75.8038C42.3929 75.796 42.3817 75.7775 42.3688 75.7424C42.3418 75.6684 42.3125 75.5336 42.3125 75.3125H40.3125C40.3125 76.0622 40.506 76.8542 41.1566 77.3746L42.4059 75.8129ZM42.3125 75.3125V66.9688H40.3125V75.3125H42.3125ZM41.888 66.1509C41.1352 65.6212 39.9042 65.2485 38.3758 64.9554L37.9992 66.9196C39.5125 67.2098 40.3648 67.5246 40.737 67.7866L41.888 66.1509ZM38.3915 64.9585C36.8483 64.637 35.3521 64.432 33.9033 64.3455L33.7842 66.342C35.1271 66.4221 36.5267 66.613 37.9835 66.9165L38.3915 64.9585ZM32.9818 64.8367C32.48 65.6898 32.0995 66.9034 31.8007 68.3976L33.7618 68.7899C34.0463 67.3674 34.3742 66.4144 34.7057 65.8508L32.9818 64.8367ZM31.7995 68.4037L31.612 69.3725L33.5755 69.7525L33.763 68.7838L31.7995 68.4037ZM31.6123 69.371C31.2807 71.0701 30.9827 72.435 30.7185 73.4717L32.6565 73.9658C32.9339 72.8775 33.2401 71.4715 33.5752 69.754L31.6123 69.371ZM30.7185 73.4717C30.4624 74.4765 30.1606 75.2272 29.8349 75.7587L31.5401 76.8038C32.006 76.0436 32.371 75.086 32.6565 73.9658L30.7185 73.4717ZM30.6875 75.2812C29.9318 75.2812 29.4483 75.1802 29.1646 75.0509C28.9176 74.9384 28.8649 74.8304 28.8408 74.7409L26.9092 75.2591C27.1143 76.0238 27.6449 76.5564 28.3354 76.871C28.9892 77.1688 29.7974 77.2812 30.6875 77.2812V75.2812ZM28.6928 75.5755C28.8713 75.3218 29.015 74.9878 29.1376 74.6488C29.2671 74.2909 29.3999 73.8502 29.5368 73.3348C29.8109 72.3031 30.1153 70.9185 30.4505 69.1904L28.487 68.8096C28.1555 70.519 27.861 71.8532 27.6038 72.8214C27.4751 73.306 27.3592 73.6857 27.2569 73.9684C27.2059 74.1093 27.1612 74.2181 27.1234 74.2992C27.1047 74.3393 27.0891 74.3696 27.0769 74.3917C27.0708 74.4025 27.066 74.4106 27.0625 74.4163C27.059 74.422 27.0572 74.4245 27.0572 74.4245L28.6928 75.5755ZM30.4509 69.1881C31.0152 66.2412 31.7144 62.3277 32.5482 57.4497L30.5768 57.1128C29.744 61.9848 29.0473 65.8838 28.4866 68.8119L30.4509 69.1881ZM32.5485 57.448C33.5057 51.7881 34.3785 47.04 35.167 43.2012L33.208 42.7988C32.4131 46.6683 31.536 51.441 30.5765 57.1145L32.5485 57.448ZM35.1673 43.2002C35.954 39.3491 36.7782 36.1294 37.6369 33.5327L35.7381 32.9048C34.8468 35.5998 34.0043 38.9009 33.2077 42.7998L35.1673 43.2002ZM37.6388 33.5269C38.1088 32.0762 38.5521 31.0601 38.954 30.426C39.399 29.7239 39.6022 29.7812 39.5 29.7812V27.7812C38.4811 27.7812 37.7572 28.5782 37.2647 29.3553C36.7292 30.2003 36.2245 31.403 35.7362 32.9106L37.6388 33.5269ZM39.5 29.7812C40.274 29.7812 40.709 29.9456 40.9462 30.1313L42.1788 28.5562C41.4577 27.9919 40.5177 27.7812 39.5 27.7812V29.7812ZM40.5625 29.3438C40.5625 31.0043 40.9901 35.1917 41.8203 41.8119L43.8047 41.5631C42.9682 34.8917 42.5625 30.8499 42.5625 29.3438H40.5625ZM41.8203 41.8119C42.6553 48.4709 43.0625 52.7821 43.0625 54.8125H45.0625C45.0625 52.6346 44.6364 48.1957 43.8047 41.5631L41.8203 41.8119ZM43.0625 54.8125C43.0625 56.8678 43.2966 60.141 43.7552 64.6023L45.7448 64.3977C45.2867 59.9423 45.0625 56.7572 45.0625 54.8125H43.0625ZM43.7545 64.595C44.1914 69.1715 44.4062 72.5703 44.4062 74.8125H46.4062C46.4062 72.4714 46.1836 68.9951 45.7455 64.405L43.7545 64.595ZM44.4062 74.8125C44.4062 75.3807 44.2664 75.6225 44.1628 75.7278C44.0617 75.8303 43.8317 75.9688 43.2812 75.9688V77.9688C44.1475 77.9688 44.98 77.7478 45.5872 77.1316C46.1919 76.5181 46.4062 75.6818 46.4062 74.8125H44.4062ZM39.9375 64.2188C40.4183 64.2188 40.9405 64.1394 41.4925 64.0014L41.0075 62.0611C40.5595 62.1731 40.2067 62.2188 39.9375 62.2188V64.2188ZM42.2477 62.9632C42.1838 62.0268 41.9631 59.6854 41.5887 55.9624L39.5988 56.1626C39.9744 59.8979 40.1912 62.2023 40.2523 63.0993L42.2477 62.9632ZM41.5889 55.9638C40.6071 46.0622 40.125 40.2292 40.125 38.375H38.125C38.125 40.3542 38.6221 46.3128 39.5986 56.1612L41.5889 55.9638ZM40.125 38.375C40.125 38.2269 40.1275 38.1227 40.1313 38.0555C40.1322 38.0395 40.133 38.0274 40.1338 38.0186C40.1345 38.0096 40.135 38.006 40.1349 38.0068C40.1348 38.007 40.1337 38.0166 40.1305 38.0327C40.1279 38.0463 40.1206 38.0818 40.1049 38.1287L38.2076 37.4963C38.1483 37.6741 38.1385 37.869 38.1344 37.9445C38.1277 38.0648 38.125 38.2106 38.125 38.375H40.125ZM38.4491 37.1054C38.199 37.3555 38.0231 37.7101 37.8927 38.0158C37.7477 38.3557 37.6002 38.7814 37.4491 39.2806C37.1462 40.2813 36.8064 41.652 36.4292 43.3806L38.3833 43.8069C38.7561 42.098 39.0829 40.7864 39.3634 39.86C39.5039 39.3957 39.6273 39.0467 39.7323 38.8006C39.8519 38.5204 39.9051 38.4778 39.8634 38.5196L38.4491 37.1054ZM36.4292 43.3806C35.675 46.8376 34.9738 50.553 34.3256 54.5265L36.2994 54.8485C36.9428 50.9053 37.6375 47.2249 38.3833 43.8069L36.4292 43.3806ZM34.3257 54.5256C33.6817 58.4519 33.317 61.1133 33.2512 62.4509L35.2488 62.5491C35.308 61.3451 35.6516 58.7981 36.2993 54.8494L34.3257 54.5256ZM33.9944 63.4668C35.8948 63.9692 37.8769 64.2188 39.9375 64.2188V62.2188C38.0398 62.2188 36.2302 61.9891 34.5056 61.5332L33.9944 63.4668Z" fill="url(#paint1_linear)"/>
<path d="M27.3125 65.9688H28.3125C28.3125 65.6433 28.1541 65.3382 27.888 65.1509L27.3125 65.9688ZM24.1875 64.9375L23.9835 65.9165C23.9887 65.9176 23.9939 65.9186 23.9992 65.9196L24.1875 64.9375ZM19.8438 64.3438L19.9033 63.3455C19.5283 63.3231 19.1723 63.5129 18.9818 63.8367L19.8438 64.3438ZM18.7812 67.5938L17.8007 67.3976L17.7995 67.4037L18.7812 67.5938ZM18.5938 68.5625L19.5752 68.754L19.5755 68.7525L18.5938 68.5625ZM16.6875 75.2812V76.2812C17.0354 76.2812 17.3583 76.1004 17.5401 75.8038L16.6875 75.2812ZM13.875 74L13.0572 73.4245C12.8865 73.667 12.8323 73.9727 12.9092 74.2591L13.875 74ZM15.4688 68L16.4505 68.1904L16.4509 68.1881L15.4688 68ZM17.5625 56.2812L18.5482 56.4497L18.5485 56.448L17.5625 56.2812ZM20.1875 42L21.167 42.2012L21.1673 42.2002L20.1875 42ZM22.6875 32.2188L23.6369 32.5327L23.6388 32.5269L22.6875 32.2188ZM27.5625 28.3438H28.5625C28.5625 28.0362 28.421 27.7458 28.1788 27.5562L27.5625 28.3438ZM30.75 63.5L31.7455 63.405L31.7448 63.3977L30.75 63.5ZM27.25 62.0312L27.4925 63.0014C27.9625 62.8839 28.2806 62.4465 28.2477 61.9632L27.25 62.0312ZM26.5938 55.0625L25.5986 55.1612L25.5988 55.1626L26.5938 55.0625ZM25.1562 36.8125L26.1049 37.1287C26.2516 36.6887 26.0765 36.2057 25.682 35.9618C25.2875 35.718 24.7771 35.7775 24.4491 36.1054L25.1562 36.8125ZM21.3125 53.6875L22.2993 53.8494L22.2994 53.8485L21.3125 53.6875ZM20.25 61.5L19.2512 61.4509C19.228 61.9225 19.5379 62.3461 19.9944 62.4668L20.25 61.5ZM29.2812 74.9688C28.6733 74.9688 28.4528 74.8503 28.4059 74.8129L27.1566 76.3746C27.7347 76.8372 28.5142 76.9688 29.2812 76.9688V74.9688ZM28.4059 74.8129C28.4057 74.8127 28.4033 74.811 28.3984 74.8038C28.3929 74.796 28.3817 74.7775 28.3688 74.7424C28.3418 74.6684 28.3125 74.5336 28.3125 74.3125H26.3125C26.3125 75.0622 26.506 75.8542 27.1566 76.3746L28.4059 74.8129ZM28.3125 74.3125V65.9688H26.3125V74.3125H28.3125ZM27.888 65.1509C27.1352 64.6212 25.9042 64.2485 24.3758 63.9554L23.9992 65.9196C25.5125 66.2098 26.3648 66.5246 26.737 66.7866L27.888 65.1509ZM24.3915 63.9585C22.8483 63.637 21.3521 63.432 19.9033 63.3455L19.7842 65.342C21.1271 65.4221 22.5267 65.613 23.9835 65.9165L24.3915 63.9585ZM18.9818 63.8367C18.48 64.6898 18.0995 65.9034 17.8007 67.3976L19.7618 67.7899C20.0463 66.3674 20.3742 65.4144 20.7057 64.8508L18.9818 63.8367ZM17.7995 67.4037L17.612 68.3725L19.5755 68.7525L19.763 67.7838L17.7995 67.4037ZM17.6123 68.371C17.2807 70.0701 16.9827 71.435 16.7185 72.4717L18.6565 72.9658C18.9339 71.8775 19.2401 70.4715 19.5752 68.754L17.6123 68.371ZM16.7185 72.4717C16.4624 73.4765 16.1606 74.2272 15.8349 74.7587L17.5401 75.8038C18.006 75.0436 18.371 74.086 18.6565 72.9658L16.7185 72.4717ZM16.6875 74.2812C15.9318 74.2812 15.4483 74.1802 15.1646 74.0509C14.9176 73.9384 14.8649 73.8304 14.8408 73.7409L12.9092 74.2591C13.1143 75.0238 13.6449 75.5564 14.3354 75.871C14.9892 76.1688 15.7974 76.2812 16.6875 76.2812V74.2812ZM14.6928 74.5755C14.8713 74.3218 15.015 73.9878 15.1376 73.6488C15.2671 73.2909 15.3999 72.8502 15.5368 72.3348C15.8109 71.3031 16.1153 69.9185 16.4505 68.1904L14.487 67.8096C14.1555 69.519 13.861 70.8532 13.6038 71.8214C13.4751 72.306 13.3592 72.6857 13.2569 72.9684C13.2059 73.1093 13.1612 73.2181 13.1234 73.2992C13.1047 73.3393 13.0891 73.3696 13.0769 73.3917C13.0708 73.4025 13.066 73.4106 13.0625 73.4163C13.059 73.422 13.0572 73.4245 13.0572 73.4245L14.6928 74.5755ZM16.4509 68.1881C17.0152 65.2412 17.7144 61.3277 18.5482 56.4497L16.5768 56.1128C15.744 60.9848 15.0473 64.8838 14.4866 67.8119L16.4509 68.1881ZM18.5485 56.448C19.5057 50.7881 20.3785 46.04 21.167 42.2012L19.208 41.7988C18.4131 45.6683 17.536 50.441 16.5765 56.1145L18.5485 56.448ZM21.1673 42.2002C21.954 38.3491 22.7782 35.1294 23.6369 32.5327L21.7381 31.9048C20.8468 34.5998 20.0043 37.9009 19.2077 41.7998L21.1673 42.2002ZM23.6388 32.5269C24.1088 31.0762 24.5521 30.0601 24.954 29.426C25.399 28.7239 25.6022 28.7812 25.5 28.7812V26.7812C24.4811 26.7812 23.7572 27.5782 23.2647 28.3553C22.7292 29.2003 22.2245 30.403 21.7362 31.9106L23.6388 32.5269ZM25.5 28.7812C26.274 28.7812 26.709 28.9456 26.9462 29.1313L28.1788 27.5562C27.4577 26.9919 26.5177 26.7812 25.5 26.7812V28.7812ZM26.5625 28.3438C26.5625 30.0043 26.9901 34.1917 27.8203 40.8119L29.8047 40.5631C28.9682 33.8917 28.5625 29.8499 28.5625 28.3438H26.5625ZM27.8203 40.8119C28.6553 47.4709 29.0625 51.7821 29.0625 53.8125H31.0625C31.0625 51.6346 30.6364 47.1957 29.8047 40.5631L27.8203 40.8119ZM29.0625 53.8125C29.0625 55.8678 29.2966 59.141 29.7552 63.6023L31.7448 63.3977C31.2867 58.9423 31.0625 55.7572 31.0625 53.8125H29.0625ZM29.7545 63.595C30.1914 68.1715 30.4062 71.5703 30.4062 73.8125H32.4062C32.4062 71.4714 32.1836 67.9951 31.7455 63.405L29.7545 63.595ZM30.4062 73.8125C30.4062 74.3807 30.2664 74.6225 30.1628 74.7278C30.0617 74.8303 29.8317 74.9688 29.2812 74.9688V76.9688C30.1475 76.9688 30.98 76.7478 31.5872 76.1316C32.1919 75.5181 32.4062 74.6818 32.4062 73.8125H30.4062ZM25.9375 63.2188C26.4183 63.2188 26.9405 63.1394 27.4925 63.0014L27.0075 61.0611C26.5595 61.1731 26.2067 61.2188 25.9375 61.2188V63.2188ZM28.2477 61.9632C28.1838 61.0268 27.9631 58.6854 27.5887 54.9624L25.5988 55.1626C25.9744 58.8979 26.1912 61.2023 26.2523 62.0993L28.2477 61.9632ZM27.5889 54.9638C26.6071 45.0622 26.125 39.2292 26.125 37.375H24.125C24.125 39.3542 24.6221 45.3128 25.5986 55.1612L27.5889 54.9638ZM26.125 37.375C26.125 37.2269 26.1275 37.1227 26.1313 37.0555C26.1322 37.0395 26.133 37.0274 26.1338 37.0186C26.1345 37.0096 26.135 37.006 26.1349 37.0068C26.1348 37.007 26.1337 37.0166 26.1305 37.0327C26.1279 37.0463 26.1206 37.0818 26.1049 37.1287L24.2076 36.4963C24.1483 36.6741 24.1385 36.869 24.1344 36.9445C24.1277 37.0648 24.125 37.2106 24.125 37.375H26.125ZM24.4491 36.1054C24.199 36.3555 24.0231 36.7101 23.8927 37.0158C23.7477 37.3557 23.6002 37.7814 23.4491 38.2806C23.1462 39.2813 22.8064 40.652 22.4292 42.3806L24.3833 42.8069C24.7561 41.098 25.0829 39.7864 25.3634 38.86C25.5039 38.3957 25.6273 38.0467 25.7323 37.8006C25.8519 37.5204 25.9051 37.4778 25.8634 37.5196L24.4491 36.1054ZM22.4292 42.3806C21.675 45.8376 20.9738 49.553 20.3256 53.5265L22.2994 53.8485C22.9428 49.9053 23.6375 46.2249 24.3833 42.8069L22.4292 42.3806ZM20.3257 53.5256C19.6817 57.4519 19.317 60.1133 19.2512 61.4509L21.2488 61.5491C21.308 60.3451 21.6516 57.7981 22.2993 53.8494L20.3257 53.5256ZM19.9944 62.4668C21.8948 62.9692 23.8769 63.2188 25.9375 63.2188V61.2188C24.0398 61.2188 22.2302 60.9891 20.5056 60.5332L19.9944 62.4668Z" fill="url(#paint2_linear)"/>
<defs>
<linearGradient id="paint0_linear" x1="31.0909" y1="22" x2="31.0909" y2="84.1818" gradientUnits="userSpaceOnUse">
<stop stop-color="#FFCC00"/>
<stop offset="0.489583" stop-color="#9E0759"/>
<stop offset="0.791667" stop-color="#835EFF"/>
<stop offset="1" stop-color="#FFCC00"/>
</linearGradient>
<linearGradient id="paint1_linear" x1="37" y1="1" x2="37" y2="94" gradientUnits="userSpaceOnUse">
<stop stop-color="#FFCC00"/>
<stop offset="0.453125" stop-color="#9E0759"/>
<stop offset="1" stop-color="#6A68D3"/>
</linearGradient>
<linearGradient id="paint2_linear" x1="23" y1="0" x2="23" y2="93" gradientUnits="userSpaceOnUse">
<stop stop-color="#FFCC00"/>
<stop offset="0.453125" stop-color="#9E0759"/>
<stop offset="1" stop-color="#6A68D3"/>
</linearGradient>
</defs>
</svg> -->
<svg width="72" height="94" viewBox="0 0 72 94" fill="none" xmlns="http://www.w3.org/2000/svg">
<circle cx="36" cy="53" r="34.75" stroke="url(#paint0_linear)" stroke-width="2.5" stroke-linecap="round" stroke-linejoin="round" stroke-dasharray="52.38 1.23 4.85 8.47"/>
<path d="M45.3125 66.9688H46.5125C46.5125 66.5782 46.3225 66.2121 46.0031 65.9874L45.3125 66.9688ZM42.1875 65.9375L41.9428 67.1123C41.949 67.1136 41.9552 67.1148 41.9615 67.116L42.1875 65.9375ZM37.8438 65.3438L37.9153 64.1459C37.4652 64.119 37.038 64.3467 36.8094 64.7353L37.8438 65.3438ZM36.7812 68.5938L35.6045 68.3584L35.6031 68.3657L36.7812 68.5938ZM36.5938 69.5625L37.7715 69.7923L37.7719 69.7905L36.5938 69.5625ZM34.6875 76.2812V77.4813C35.105 77.4813 35.4925 77.2643 35.7106 76.9083L34.6875 76.2812ZM31.875 75L30.8936 74.3094C30.6889 74.6004 30.6238 74.9673 30.716 75.311L31.875 75ZM33.4688 69L34.6468 69.2285L34.6473 69.2257L33.4688 69ZM35.5625 57.2812L36.7453 57.4834L36.7457 57.4813L35.5625 57.2812ZM38.1875 43L39.363 43.2414L39.3632 43.2402L38.1875 43ZM40.6875 33.2188L41.8268 33.5955L41.8291 33.5886L40.6875 33.2188ZM45.5625 29.3438H46.7625C46.7625 28.9747 46.5927 28.6262 46.3021 28.3987L45.5625 29.3438ZM48.75 64.5L49.9446 64.386L49.9437 64.3773L48.75 64.5ZM45.25 63.0312L45.541 64.1954C46.105 64.0544 46.4868 63.5296 46.4472 62.9496L45.25 63.0312ZM44.5938 56.0625L43.3996 56.1809L43.3998 56.1826L44.5938 56.0625ZM43.1562 37.8125L44.2947 38.192C44.4707 37.664 44.2605 37.0843 43.7871 36.7917C43.3137 36.4991 42.7013 36.5704 42.3077 36.964L43.1562 37.8125ZM39.3125 54.6875L40.4967 54.8817L40.4968 54.8807L39.3125 54.6875ZM38.25 62.5L37.0514 62.4411C37.0236 63.007 37.3955 63.5153 37.9433 63.6601L38.25 62.5ZM47.2812 75.7687C47.0052 75.7687 46.8109 75.7431 46.6817 75.7108C46.5527 75.6786 46.5195 75.6476 46.5309 75.6567L45.0316 77.5308C45.6629 78.0359 46.4983 78.1688 47.2812 78.1688V75.7687ZM46.5309 75.6567C46.5684 75.6868 46.5699 75.7098 46.5566 75.6736C46.5398 75.6276 46.5125 75.5174 46.5125 75.3125H44.1125C44.1125 76.0913 44.3134 76.9562 45.0316 77.5308L46.5309 75.6567ZM46.5125 75.3125V66.9688H44.1125V75.3125H46.5125ZM46.0031 65.9874C45.2123 65.4309 43.9434 65.0524 42.4135 64.759L41.9615 67.116C43.4733 67.406 44.2877 67.715 44.6219 67.9501L46.0031 65.9874ZM42.4322 64.7627C40.8805 64.4394 39.3745 64.233 37.9153 64.1459L37.7722 66.5416C39.1046 66.6212 40.4945 66.8106 41.9428 67.1123L42.4322 64.7627ZM36.8094 64.7353C36.2906 65.6173 35.9048 66.857 35.6046 68.3584L37.9579 68.8291C38.241 67.4138 38.5636 66.4868 38.8781 65.9522L36.8094 64.7353ZM35.6031 68.3657L35.4156 69.3345L37.7719 69.7905L37.9594 68.8218L35.6031 68.3657ZM35.416 69.3327C35.0848 71.03 34.7876 72.3908 34.5247 73.4223L36.8503 74.0152C37.129 72.9217 37.4361 71.5117 37.7715 69.7923L35.416 69.3327ZM34.5247 73.4223C34.2715 74.4156 33.9761 75.1456 33.6644 75.6542L35.7106 76.9083C36.1906 76.1252 36.5618 75.1469 36.8503 74.0152L34.5247 73.4223ZM34.6875 75.0812C33.9452 75.0812 33.4943 74.9813 33.2475 74.8689C33.0448 74.7766 33.0399 74.7111 33.034 74.689L30.716 75.311C30.9392 76.1431 31.5177 76.7182 32.2525 77.053C32.9432 77.3676 33.784 77.4813 34.6875 77.4813V75.0812ZM32.8564 75.6906C33.0508 75.4143 33.2017 75.0596 33.3257 74.7168C33.4579 74.3514 33.5924 73.9046 33.7301 73.3862C34.0058 72.3481 34.3113 70.9584 34.6468 69.2285L32.2907 68.7715C31.9595 70.4791 31.666 71.8082 31.4105 72.7701C31.2826 73.2516 31.1684 73.6251 31.0688 73.9003C31.0192 74.0375 30.9767 74.1405 30.9421 74.2147C30.9056 74.2931 30.888 74.3174 30.8936 74.3094L32.8564 75.6906ZM34.6473 69.2257C35.212 66.277 35.9114 62.3619 36.7453 57.4834L34.3797 57.0791C33.5469 61.9506 32.8505 65.848 32.2902 68.7743L34.6473 69.2257ZM36.7457 57.4813C37.7027 51.8228 38.5751 47.0772 39.363 43.2414L37.012 42.7586C36.2166 46.6311 35.339 51.4063 34.3793 57.0812L36.7457 57.4813ZM39.3632 43.2402C40.149 39.394 40.9713 36.1824 41.8268 33.5955L39.5482 32.842C38.6537 35.5468 37.8093 38.856 37.0118 42.7598L39.3632 43.2402ZM41.8291 33.5886C42.2972 32.1435 42.7344 31.1461 43.1229 30.533C43.5632 29.8384 43.7143 29.9813 43.5 29.9813V27.5812C42.369 27.5812 41.5931 28.4637 41.0958 29.2482C40.5469 30.1143 40.0361 31.3357 39.5459 32.8489L41.8291 33.5886ZM43.5 29.9813C44.2496 29.9813 44.6341 30.141 44.8229 30.2888L46.3021 28.3987C45.5325 27.7965 44.5421 27.5812 43.5 27.5812V29.9813ZM44.3625 29.3438C44.3625 31.0197 44.7923 35.2217 45.6218 41.8368L48.0032 41.5382C47.166 34.8617 46.7625 30.8345 46.7625 29.3438H44.3625ZM45.6218 41.8368C46.4571 48.4984 46.8625 52.7968 46.8625 54.8125H49.2625C49.2625 52.6198 48.8345 48.1682 48.0032 41.5382L45.6218 41.8368ZM46.8625 54.8125C46.8625 56.8789 47.0976 60.1609 47.5563 64.6227L49.9437 64.3773C49.4857 59.9225 49.2625 56.7461 49.2625 54.8125H46.8625ZM47.5554 64.614C47.9921 69.1892 48.2062 72.5802 48.2062 74.8125H50.6063C50.6063 72.4615 50.3829 68.9775 49.9446 64.386L47.5554 64.614ZM48.2062 74.8125C48.2062 75.3506 48.0739 75.533 48.0203 75.5874C47.9699 75.6385 47.8001 75.7687 47.2812 75.7687V78.1688C48.179 78.1688 49.0718 77.9396 49.7297 77.272C50.3844 76.6076 50.6063 75.7119 50.6063 74.8125H48.2062ZM43.9375 64.4188C44.4394 64.4188 44.9786 64.336 45.541 64.1954L44.959 61.8671C44.5214 61.9765 44.1856 62.0187 43.9375 62.0187V64.4188ZM46.4472 62.9496C46.3831 62.0093 46.162 59.6642 45.7877 55.9424L43.3998 56.1826C43.7755 59.9192 43.9919 62.2199 44.0528 63.1129L46.4472 62.9496ZM45.7879 55.9441C44.8056 46.0371 44.325 40.2167 44.325 38.375H41.925C41.925 40.3667 42.4236 46.3379 43.3996 56.1809L45.7879 55.9441ZM44.325 38.375C44.325 38.2285 44.3275 38.1285 44.331 38.0666C44.3327 38.0353 44.334 38.0259 44.3333 38.0317C44.3329 38.035 44.3311 38.0492 44.3269 38.0708C44.3232 38.0896 44.314 38.1341 44.2947 38.192L42.0178 37.433C41.9488 37.6402 41.9387 37.8616 41.9347 37.9334C41.9277 38.059 41.925 38.209 41.925 38.375H44.325ZM42.3077 36.964C42.0284 37.2433 41.8403 37.6291 41.7088 37.9373C41.5597 38.2866 41.4099 38.72 41.2577 39.2226C40.9526 40.2307 40.6114 41.6074 40.2338 43.3379L42.5787 43.8496C42.9511 42.1426 43.2766 40.837 43.5548 39.918C43.6943 39.4571 43.8153 39.1158 43.9162 38.8791C44.0347 38.6014 44.0757 38.5901 44.0048 38.661L42.3077 36.964ZM40.2338 43.3379C39.4787 46.7988 38.777 50.5178 38.1282 54.4943L40.4968 54.8807C41.1397 50.9405 41.8338 47.2637 42.5787 43.8496L40.2338 43.3379ZM38.1283 54.4933C37.4847 58.4172 37.1179 61.0901 37.0514 62.4411L39.4486 62.5589C39.5071 61.3682 39.8486 58.8328 40.4967 54.8817L38.1283 54.4933ZM37.9433 63.6601C39.8613 64.1672 41.8606 64.4188 43.9375 64.4188V62.0187C42.0561 62.0187 40.2637 61.7911 38.5567 61.3399L37.9433 63.6601Z" fill="url(#paint1_linear)"/>
<path d="M31.3125 65.9688H32.5125C32.5125 65.5782 32.3225 65.2121 32.0031 64.9874L31.3125 65.9688ZM28.1875 64.9375L27.9428 66.1123C27.949 66.1136 27.9552 66.1148 27.9615 66.116L28.1875 64.9375ZM23.8438 64.3438L23.9153 63.1459C23.4652 63.119 23.038 63.3467 22.8094 63.7353L23.8438 64.3438ZM22.7812 67.5938L21.6045 67.3584L21.6031 67.3657L22.7812 67.5938ZM22.5938 68.5625L23.7715 68.7923L23.7719 68.7905L22.5938 68.5625ZM20.6875 75.2812V76.4813C21.105 76.4813 21.4925 76.2643 21.7106 75.9083L20.6875 75.2812ZM17.875 74L16.8936 73.3094C16.6889 73.6004 16.6238 73.9673 16.716 74.311L17.875 74ZM19.4688 68L20.6468 68.2285L20.6473 68.2257L19.4688 68ZM21.5625 56.2812L22.7453 56.4834L22.7457 56.4813L21.5625 56.2812ZM24.1875 42L25.363 42.2414L25.3632 42.2402L24.1875 42ZM26.6875 32.2188L27.8268 32.5955L27.8291 32.5886L26.6875 32.2188ZM31.5625 28.3438H32.7625C32.7625 27.9747 32.5927 27.6262 32.3021 27.3987L31.5625 28.3438ZM34.75 63.5L35.9446 63.386L35.9437 63.3773L34.75 63.5ZM31.25 62.0312L31.541 63.1954C32.105 63.0544 32.4868 62.5296 32.4472 61.9496L31.25 62.0312ZM30.5938 55.0625L29.3996 55.1809L29.3998 55.1826L30.5938 55.0625ZM29.1562 36.8125L30.2947 37.192C30.4707 36.664 30.2605 36.0843 29.7871 35.7917C29.3137 35.4991 28.7013 35.5704 28.3077 35.964L29.1562 36.8125ZM25.3125 53.6875L26.4967 53.8817L26.4968 53.8807L25.3125 53.6875ZM24.25 61.5L23.0514 61.4411C23.0236 62.007 23.3955 62.5153 23.9433 62.6601L24.25 61.5ZM33.2812 74.7687C33.0052 74.7687 32.8109 74.7431 32.6817 74.7108C32.5527 74.6786 32.5195 74.6476 32.5309 74.6567L31.0316 76.5308C31.6629 77.0359 32.4983 77.1688 33.2812 77.1688V74.7687ZM32.5309 74.6567C32.5684 74.6868 32.5699 74.7098 32.5566 74.6736C32.5398 74.6276 32.5125 74.5174 32.5125 74.3125H30.1125C30.1125 75.0913 30.3134 75.9562 31.0316 76.5308L32.5309 74.6567ZM32.5125 74.3125V65.9688H30.1125V74.3125H32.5125ZM32.0031 64.9874C31.2123 64.4309 29.9434 64.0524 28.4135 63.759L27.9615 66.116C29.4733 66.406 30.2877 66.715 30.6219 66.9501L32.0031 64.9874ZM28.4322 63.7627C26.8805 63.4394 25.3745 63.233 23.9153 63.1459L23.7722 65.5416C25.1046 65.6212 26.4945 65.8106 27.9428 66.1123L28.4322 63.7627ZM22.8094 63.7353C22.2906 64.6173 21.9048 65.857 21.6046 67.3584L23.9579 67.8291C24.241 66.4138 24.5636 65.4868 24.8781 64.9522L22.8094 63.7353ZM21.6031 67.3657L21.4156 68.3345L23.7719 68.7905L23.9594 67.8218L21.6031 67.3657ZM21.416 68.3327C21.0848 70.03 20.7876 71.3908 20.5247 72.4223L22.8503 73.0152C23.129 71.9217 23.4361 70.5117 23.7715 68.7923L21.416 68.3327ZM20.5247 72.4223C20.2715 73.4156 19.9761 74.1456 19.6644 74.6542L21.7106 75.9083C22.1906 75.1252 22.5618 74.1469 22.8503 73.0152L20.5247 72.4223ZM20.6875 74.0812C19.9452 74.0812 19.4943 73.9813 19.2475 73.8689C19.0448 73.7766 19.0399 73.7111 19.034 73.689L16.716 74.311C16.9392 75.1431 17.5177 75.7182 18.2525 76.053C18.9432 76.3676 19.784 76.4813 20.6875 76.4813V74.0812ZM18.8564 74.6906C19.0508 74.4143 19.2017 74.0596 19.3257 73.7168C19.4579 73.3514 19.5924 72.9046 19.7301 72.3862C20.0058 71.3481 20.3113 69.9584 20.6468 68.2285L18.2907 67.7715C17.9595 69.4791 17.666 70.8082 17.4105 71.7701C17.2826 72.2516 17.1684 72.6251 17.0688 72.9003C17.0192 73.0375 16.9767 73.1405 16.9421 73.2147C16.9056 73.2931 16.888 73.3174 16.8936 73.3094L18.8564 74.6906ZM20.6473 68.2257C21.212 65.277 21.9114 61.3619 22.7453 56.4834L20.3797 56.0791C19.5469 60.9506 18.8505 64.848 18.2902 67.7743L20.6473 68.2257ZM22.7457 56.4813C23.7027 50.8228 24.5751 46.0772 25.363 42.2414L23.012 41.7586C22.2166 45.6311 21.339 50.4063 20.3793 56.0812L22.7457 56.4813ZM25.3632 42.2402C26.149 38.394 26.9713 35.1824 27.8268 32.5955L25.5482 31.842C24.6537 34.5468 23.8093 37.856 23.0118 41.7598L25.3632 42.2402ZM27.8291 32.5886C28.2972 31.1435 28.7344 30.1461 29.1229 29.533C29.5632 28.8384 29.7143 28.9813 29.5 28.9813V26.5812C28.369 26.5812 27.5931 27.4637 27.0958 28.2482C26.5469 29.1143 26.0361 30.3357 25.5459 31.8489L27.8291 32.5886ZM29.5 28.9813C30.2496 28.9813 30.6341 29.141 30.8229 29.2888L32.3021 27.3987C31.5325 26.7965 30.5421 26.5812 29.5 26.5812V28.9813ZM30.3625 28.3438C30.3625 30.0197 30.7923 34.2217 31.6218 40.8368L34.0032 40.5382C33.166 33.8617 32.7625 29.8345 32.7625 28.3438H30.3625ZM31.6218 40.8368C32.4571 47.4984 32.8625 51.7968 32.8625 53.8125H35.2625C35.2625 51.6198 34.8345 47.1682 34.0032 40.5382L31.6218 40.8368ZM32.8625 53.8125C32.8625 55.8789 33.0976 59.1609 33.5563 63.6227L35.9437 63.3773C35.4857 58.9225 35.2625 55.7461 35.2625 53.8125H32.8625ZM33.5554 63.614C33.9921 68.1892 34.2062 71.5802 34.2062 73.8125H36.6063C36.6063 71.4615 36.3829 67.9775 35.9446 63.386L33.5554 63.614ZM34.2062 73.8125C34.2062 74.3506 34.0739 74.533 34.0203 74.5874C33.9699 74.6385 33.8001 74.7687 33.2812 74.7687V77.1688C34.179 77.1688 35.0718 76.9396 35.7297 76.272C36.3844 75.6076 36.6063 74.7119 36.6063 73.8125H34.2062ZM29.9375 63.4188C30.4394 63.4188 30.9786 63.336 31.541 63.1954L30.959 60.8671C30.5214 60.9765 30.1856 61.0187 29.9375 61.0187V63.4188ZM32.4472 61.9496C32.3831 61.0093 32.162 58.6642 31.7877 54.9424L29.3998 55.1826C29.7755 58.9192 29.9919 61.2199 30.0528 62.1129L32.4472 61.9496ZM31.7879 54.9441C30.8056 45.0371 30.325 39.2167 30.325 37.375H27.925C27.925 39.3667 28.4236 45.3379 29.3996 55.1809L31.7879 54.9441ZM30.325 37.375C30.325 37.2285 30.3275 37.1285 30.331 37.0666C30.3327 37.0353 30.334 37.0259 30.3333 37.0317C30.3329 37.035 30.3311 37.0492 30.3269 37.0708C30.3232 37.0896 30.314 37.1341 30.2947 37.192L28.0178 36.433C27.9488 36.6402 27.9387 36.8616 27.9347 36.9334C27.9277 37.059 27.925 37.209 27.925 37.375H30.325ZM28.3077 35.964C28.0284 36.2433 27.8403 36.6291 27.7088 36.9373C27.5597 37.2866 27.4099 37.72 27.2577 38.2226C26.9526 39.2307 26.6114 40.6074 26.2338 42.3379L28.5787 42.8496C28.9511 41.1426 29.2766 39.837 29.5548 38.918C29.6943 38.4571 29.8153 38.1158 29.9162 37.8791C30.0347 37.6014 30.0757 37.5901 30.0048 37.661L28.3077 35.964ZM26.2338 42.3379C25.4787 45.7988 24.777 49.5178 24.1282 53.4943L26.4968 53.8807C27.1397 49.9405 27.8338 46.2637 28.5787 42.8496L26.2338 42.3379ZM24.1283 53.4933C23.4847 57.4172 23.1179 60.0901 23.0514 61.4411L25.4486 61.5589C25.5071 60.3682 25.8486 57.8328 26.4967 53.8817L24.1283 53.4933ZM23.9433 62.6601C25.8613 63.1672 27.8606 63.4188 29.9375 63.4188V61.0187C28.0561 61.0187 26.2637 60.7911 24.5567 60.3399L23.9433 62.6601Z" fill="url(#paint2_linear)"/>
<defs>
<linearGradient id="paint0_linear" x1="36" y1="17" x2="36" y2="89" gradientUnits="userSpaceOnUse">
<stop stop-color="#FFCC00"/>
<stop offset="0.489583" stop-color="#9E0759"/>
<stop offset="0.791667" stop-color="#835EFF"/>
<stop offset="1" stop-color="#FFCC00"/>
</linearGradient>
<linearGradient id="paint1_linear" x1="41" y1="1" x2="41" y2="94" gradientUnits="userSpaceOnUse">
<stop stop-color="#FFCC00"/>
<stop offset="0.494792" stop-color="#EF0885"/>
<stop offset="1" stop-color="#9C7DFF"/>
</linearGradient>
<linearGradient id="paint2_linear" x1="27" y1="0" x2="27" y2="93" gradientUnits="userSpaceOnUse">
<stop stop-color="#FFCC00"/>
<stop offset="0.494792" stop-color="#EF0885"/>
<stop offset="1" stop-color="#9C7DFF"/>
</linearGradient>
</defs>
</svg>





