<svg width="118" height="115" viewBox="0 0 118 115" fill="none" xmlns="http://www.w3.org/2000/svg">
<g filter="url(#filter0_d_113_66)">
<ellipse cx="58.5" cy="57" rx="51.5" ry="50" fill="#160F31"/>
</g>
<path d="M30.9486 41.4514L44.7606 68.6366H17.1367L30.9486 41.4514Z" fill="#FFCC00"/>
<path d="M30.7075 49.7953L34.4985 57.257H26.9164L30.7075 49.7953Z" fill="#160F31"/>
<path d="M30.7075 49.7953L34.4985 57.257H26.9164L30.7075 49.7953Z" fill="#160F31"/>
<path d="M30.7075 49.7953L34.4985 57.257H26.9164L30.7075 49.7953Z" fill="#160F31"/>
<path d="M58.4962 41.4515L72.3082 68.6367H44.6843L58.4962 41.4515Z" fill="#FFCC00"/>
<rect x="71.9762" y="41.4723" width="23.6074" height="27.1647" fill="#FFCC00"/>
<rect x="82.3774" y="27" width="19.5399" height="17.6541" transform="rotate(39.7528 82.3774 27)" fill="#160F31"/>
<path d="M58.0025 49.7953L61.7935 57.257H54.2115L58.0025 49.7953Z" fill="#160F31"/>
<path d="M58.0025 49.7953L61.7935 57.257H54.2115L58.0025 49.7953Z" fill="#160F31"/>
<path d="M58.0025 49.7953L61.7935 57.257H54.2115L58.0025 49.7953Z" fill="#160F31"/>
<defs>
<filter id="filter0_d_113_66" x="0.8" y="0.41" width="117" height="114" filterUnits="userSpaceOnUse" color-interpolation-filters="sRGB">
<feFlood flood-opacity="0" result="BackgroundImageFix"/>
<feColorMatrix in="SourceAlpha" type="matrix" values="0 0 0 0 0 0 0 0 0 0 0 0 0 0 0 0 0 0 127 0" result="hardAlpha"/>
<feOffset dx="0.8" dy="0.41"/>
<feGaussianBlur stdDeviation="3.5"/>
<feComposite in2="hardAlpha" operator="out"/>
<feColorMatrix type="matrix" values="0 0 0 0 0.54902 0 0 0 0 0.243137 0 0 0 0 1 0 0 0 1 0"/>
<feBlend mode="normal" in2="BackgroundImageFix" result="effect1_dropShadow_113_66"/>
<feBlend mode="normal" in="SourceGraphic" in2="effect1_dropShadow_113_66" result="shape"/>
</filter>
</defs>
</svg>
