<svg width="141" height="122" viewBox="0 0 141 122" fill="none" xmlns="http://www.w3.org/2000/svg">
<path d="M39.6491 71.204C40.9983 73.2448 42.7848 74.9923 45.0086 76.4465C47.2908 77.9005 49.806 79.091 52.554 80.0181C55.3605 80.9449 58.3415 81.6084 61.497 82.0086C64.6525 82.4087 67.8075 82.6044 70.9618 82.5957C74.1745 82.5283 77.2697 82.2569 80.2475 81.7813C83.2838 81.3056 86.0567 80.6553 88.5662 79.8306C91.134 78.9472 93.3509 77.8896 95.2167 76.6577C97.0824 75.3674 98.422 73.9325 99.2354 72.3531L97.3077 72.3584C94.7977 73.0079 92.3755 73.7449 90.0412 74.5691C87.7652 75.3348 85.489 76.0713 83.2128 76.7786C80.9366 77.4859 78.6309 78.1057 76.2958 78.6379C73.9605 79.1117 71.5078 79.3521 68.9376 79.3593C65.5495 79.3687 62.7746 79.2887 60.6128 79.1195C58.4508 78.8918 56.4926 78.4299 54.7382 77.7338C53.0423 77.0375 51.287 76.0202 49.4725 74.6816C47.6577 73.2847 45.4037 71.4509 42.7103 69.1802C42.5935 69.1805 42.4766 69.1809 42.3598 69.1812C42.2428 69.1231 42.1551 69.0941 42.0967 69.0943C42.0383 69.0944 41.9507 69.1239 41.8341 69.1826C41.7172 69.183 41.6296 69.1832 41.5712 69.1834C41.338 69.3593 40.9885 69.7107 40.5227 70.2377C39.9984 70.7649 39.7072 71.087 39.6491 71.204Z" fill="url(#paint0_linear_2_3)" fill-opacity="0.8"/>
<path d="M57.191 57.8909C58.1321 57.7942 59.2118 57.7477 60.4302 57.7517C61.689 57.7584 62.9681 57.7665 64.2673 57.7761C65.5666 57.7856 66.824 57.8126 68.0395 57.8569C69.2579 57.8608 70.3334 57.875 71.266 57.8996C71.3469 57.9053 71.6299 57.925 72.115 57.9589C72.6433 57.9552 73.2107 57.9746 73.817 58.017C74.4667 58.0217 75.1149 58.0467 75.7617 58.0919L78.4903 58.2826C79.0563 58.3222 79.641 58.3834 80.2446 58.4662C80.8914 58.5114 81.4761 58.5725 81.9988 58.6497C82.5648 58.6892 82.969 58.7175 83.2116 58.7344C83.3705 58.7862 83.518 58.9996 83.6543 59.3747C83.8338 59.7122 83.8963 59.9807 83.8418 60.18C83.8305 60.3417 83.6302 60.5917 83.2409 60.9301C82.8517 61.2685 82.556 61.4306 82.3539 61.4165C81.8688 61.3826 81.1411 61.3317 80.1709 61.2639C79.2036 61.1557 78.0731 61.0564 76.7795 60.966L68.8966 60.4151C67.6435 60.3275 66.5304 60.27 65.5573 60.2426C64.5872 60.1748 63.8595 60.124 63.3744 60.0901C62.5603 60.1144 61.7475 60.1186 60.9362 60.1025C60.1249 60.0864 59.3121 60.0905 58.498 60.1149C58.4172 60.1092 58.254 60.1181 58.0087 60.1416C57.8065 60.1275 57.5828 60.1322 57.3374 60.1556C57.0949 60.1387 56.8509 60.142 56.6055 60.1654C56.4034 60.1513 56.2619 60.1414 56.1811 60.1358C56.2065 59.7719 56.278 59.3301 56.3956 58.8102C56.5132 58.2903 56.7783 57.9839 57.191 57.8909Z" fill="url(#paint1_linear_2_3)" fill-opacity="0.8"/>
<path d="M52.2978 43.3696C52.3447 43.8604 52.4147 44.3121 52.5077 44.7248C52.5199 45.1319 52.5523 45.5404 52.6049 45.9503C52.6603 46.3198 52.7186 46.6488 52.7796 46.9374L52.7373 47.5438C52.7607 47.7892 52.7757 48.1558 52.7822 48.6438C52.7916 49.0913 52.8183 49.5806 52.8625 50.1118C52.9498 50.6053 52.9968 51.0961 53.0033 51.584C53.0502 52.0748 53.0883 52.4024 53.1174 52.5669C53.2924 51.8073 53.5524 50.9927 53.8975 50.1232C54.2859 49.216 54.7279 48.4141 55.2234 47.7176C55.7622 46.9834 56.3733 46.3762 57.0568 45.8958C57.7836 45.3779 58.6523 45.1543 59.6629 45.2249L59.9661 45.2461C60.9174 46.1656 61.7244 47.1157 62.3871 48.0964C63.0901 49.0798 63.6879 50.1168 64.1804 51.2074C64.6729 52.298 65.1208 53.4464 65.5239 54.6527C65.9271 55.8589 66.3448 57.1474 66.7771 58.5181L67.5048 58.569C67.7456 57.4484 68.1218 56.1341 68.6334 54.6262C69.1478 53.0779 69.7967 51.6405 70.5799 50.3141C71.4065 48.9501 72.3589 47.8183 73.4374 46.9188C74.5562 46.022 75.8433 45.6245 77.2986 45.7262C78.0667 45.7799 78.7863 46.2364 79.4574 47.0957C80.1314 47.9147 80.7466 48.9935 81.3029 50.3323C81.9026 51.6335 82.4115 53.0706 82.8297 54.6434C83.2911 56.1787 83.6514 57.7069 83.9107 59.2281C84.1728 60.7088 84.3626 62.0626 84.48 63.2894C84.6377 64.5191 84.694 65.4574 84.6488 66.1042C84.6206 66.5084 84.5157 66.8464 84.3342 67.1181C84.1932 67.3926 83.9003 67.5143 83.4557 67.4832C83.011 67.4521 82.6857 67.1653 82.4799 66.6229C82.4217 66.2938 82.3141 65.7988 82.1572 65.1379C82.0407 64.4798 81.911 63.7192 81.7682 62.8562C81.6254 61.9931 81.4436 61.1071 81.2228 60.1979C81.0452 59.2512 80.8634 58.3651 80.6774 57.5397C80.4942 56.6738 80.3241 55.9104 80.1672 55.2495C80.0102 54.5886 79.9027 54.0936 79.8444 53.7645C79.7514 53.3518 79.5832 52.8526 79.3397 52.2669C79.1367 51.684 78.8717 51.117 78.5446 50.5661C78.2175 50.0151 77.8443 49.5422 77.4251 49.1473C77.0058 48.7524 76.5132 48.5352 75.9473 48.4956C75.0175 48.4307 74.1765 48.839 73.4243 49.7208C72.6721 50.6025 72.0097 51.653 71.437 52.8723C70.9048 54.0944 70.4736 55.3235 70.1434 56.5598C69.8537 57.7988 69.6661 58.7403 69.5804 59.3843C69.5607 59.6673 69.5051 60.1712 69.4139 60.896C69.363 61.6236 69.3079 62.4119 69.2486 63.2608C69.1893 64.1098 69.1342 64.898 69.0833 65.6257C69.0729 66.3562 69.0578 66.8629 69.038 67.1459C68.7324 67.4495 68.4471 67.7545 68.1819 68.061C67.9196 68.327 67.5661 68.4445 67.1214 68.4134C66.9193 68.3993 66.72 68.3447 66.5235 68.2497C66.3703 68.1172 66.2429 67.9051 66.1414 67.6137C66.1236 67.2875 66.0391 66.7535 65.8878 66.0117C65.777 65.2728 65.6285 64.4906 65.4425 63.6651C65.2564 62.8397 65.0878 62.056 64.9365 61.3143C64.7852 60.5725 64.6791 60.0573 64.618 59.7687C64.5513 59.5609 64.3802 59.1021 64.1048 58.3923C63.8699 57.6853 63.5988 56.9148 63.2914 56.0809C62.9869 55.2066 62.6796 54.3726 62.3695 53.5791C62.0593 52.7856 61.8173 52.1797 61.6435 51.7613C61.2553 50.9217 60.8572 50.2237 60.4493 49.6671C60.0846 49.0729 59.4373 48.7433 58.5076 48.6783C58.0225 48.6444 57.5651 48.7952 57.1354 49.1308C56.7462 49.4692 56.3917 49.8913 56.072 50.397C55.7927 50.9056 55.5727 51.4386 55.4118 51.9961C55.2914 52.5564 55.2171 53.0386 55.1889 53.4429L54.1082 68.9054C54.08 69.3096 53.9549 69.6462 53.733 69.915C53.5515 70.1867 53.2789 70.3098 52.915 70.2844C52.7129 70.2703 52.4934 70.2143 52.2565 70.1165C52.0224 69.9783 51.9167 69.7475 51.9393 69.4241L50.1755 43.2213L52.2978 43.3696Z" fill="url(#paint2_linear_2_3)" fill-opacity="0.8"/>
<defs>
<linearGradient id="paint0_linear_2_3" x1="140.945" y1="64.552" x2="0.0546132" y2="64.9427" gradientUnits="userSpaceOnUse">
<stop stop-color="#FFCC00"/>
<stop offset="0.630208" stop-color="#9E0759"/>
<stop offset="1" stop-color="#FFCC00"/>
</linearGradient>
<linearGradient id="paint1_linear_2_3" x1="74.5491" y1="16.1705" x2="67.2512" y2="120.595" gradientUnits="userSpaceOnUse">
<stop stop-color="#FFCC00"/>
<stop offset="0.630208" stop-color="#9E0759"/>
<stop offset="1" stop-color="#FFCC00"/>
</linearGradient>
<linearGradient id="paint2_linear_2_3" x1="72.0505" y1="1.39005" x2="64.7526" y2="105.814" gradientUnits="userSpaceOnUse">
<stop stop-color="#FFCC00"/>
<stop offset="0.630208" stop-color="#9E0759"/>
<stop offset="1" stop-color="#FFCC00"/>
</linearGradient>
</defs>
</svg>
